<svg xmlns="http://www.w3.org/2000/svg" xml:space="preserve" viewBox="0 0 427.6 82.2"><path fill="#9146ff" d="M0 0h427.6v82.2H0z"/><path fill="#fff" d="m224.5 31-8.3 4.4c-1-2-2-3.2-3.4-4a7.7 7.7 0 0 0-3.7-1.1c-5.7 0-8.5 3.7-8.5 11.1 0 3.4.7 6.1 2.2 8.2 1.4 2 3.5 3 6.3 3 3.6 0 6.2-1.8 7.7-5.4l8 4a21 21 0 0 1-7 7.2c-3 1.8-6.2 2.7-9.6 2.7-5.7 0-10.3-1.8-13.7-5.2a19.6 19.6 0 0 1-5.1-14.5c0-6 1.7-10.7 5.2-14.3a18 18 0 0 1 13.2-5.3c7.8 0 13.4 3 16.7 9.2zm-36.4 0-8.4 4.4c-1-2-2-3.2-3.4-4a7.5 7.5 0 0 0-3.6-1.1c-5.7 0-8.5 3.7-8.5 11.1 0 3.4.7 6.1 2.2 8.2 1.4 2 3.5 3 6.3 3 3.7 0 6.2-1.8 7.7-5.4l7.8 4a18.5 18.5 0 0 1-16.5 9.9c-5.7 0-10.2-1.8-13.7-5.2a19.5 19.5 0 0 1-5.2-14.5c0-6 1.8-10.7 5.3-14.3a18 18 0 0 1 13.2-5.3c7.8 0 13.4 3 16.8 9.2zM45.7 66.6A25.9 25.9 0 0 1 27.3 57a25.4 25.4 0 0 1-.3-32.5A25.5 25.5 0 0 1 53.6 15a26.4 26.4 0 0 1 18.8 34 24.1 24.1 0 0 1-6.8 10.3 25.5 25.5 0 0 1-19.9 7.2zm6.9-13v-7.9h3.7v-6.5l-.1-7c-.2-.6-.5-1.1-1-1.4l-.5-.3H40.4l-.4.2c-.4.3-.8.6-1 1v14.1h3.6v15.6h10.1zm-3.5-24.9c2-.5 3-1.9 3-4.3 0-3.1-1.5-4.6-4.5-4.6S43 21.3 43 24.4c0 2.4 1 3.8 2.9 4.3a8 8 0 0 0 3.1 0zm57.7 37.9a25 25 0 0 1-15.8-7 26 26 0 0 1-7.2-11 26.1 26.1 0 0 1 25.7-34.2 24 24 0 0 1 17.4 7.3 25.7 25.7 0 0 1-1 38.3c-5.3 4.8-11.9 7-19 6.6zm3.5-8.6a15 15 0 0 0 10.4-5.2c1.8-2 3.1-4.5 3.7-7 .6-2.5.7-6 .3-8.6a15.7 15.7 0 0 0-16.2-13.6 13.8 13.8 0 0 0-10.1 4 14.3 14.3 0 0 0-4 8.1c0 .2 0 .2-1.3.2h-1.3l3.2 3.3 3.2 3.2 3.2-3.2 3.2-3.2h-2.3v-.3c.5-1.9 1.1-3.1 2.2-4a7.4 7.4 0 0 1 4.5-1.3c3.6-.2 6.1 1.8 7.2 5.6.3 1.4.5 2.7.5 4.7 0 3.8-.8 6.4-2.6 8.4a6.2 6.2 0 0 1-5.4 2.2c-1.5 0-2.4-.2-3.4-.7-1.7-.8-2.7-2.2-3-4.3v-.8h-8.1v1a13.6 13.6 0 0 0 10.5 11.3c1.5.3 3.9.4 5.6.2z"/><path fill="#fff" d="M274 115.2V77.8h17.6q3.8 0 6.6 1.3t4.4 3.6q1.6 2.3 1.6 5.4 0 2.4-1.2 4.5-1.3 2-3.4 3.3 2.7 1.3 4.3 3.5 1.6 2.2 1.6 5 0 3.1-1.6 5.6-1.6 2.5-4.6 3.8-3 1.4-6.8 1.4zm7.8-22.1h9.3q2.5 0 4-1.2t1.5-3.2q0-2-1.5-3.2-1.5-1.3-4-1.3h-9.3zm0 15.7h10q2.7 0 4.3-1.3 1.6-1.3 1.6-3.5 0-2.3-1.6-3.5-1.6-1.4-4.2-1.4h-10.1zm38.3 6.4v-14.3l-15.3-23h9L324.1 94l10.5-16.3h8.4L327.8 101v14.3Zm22.5-12.1v-6.2h20v6.2zm38.2 12.6q-4.6 0-8.9-1.6-4.3-1.8-7.7-4.8l4.5-5.6q3.2 2.9 6.2 4.2 3 1.2 6.4 1.2 2.3 0 4-.5 1.8-.6 2.7-1.6 1-1.1 1-2.5 0-2-1.5-3-1.4-1-4.7-1.6l-7.4-1.3q-4.8-.8-7.3-3.4-2.4-2.5-2.4-6.6 0-3.5 1.7-6 1.8-2.6 5-3.9 3.4-1.4 8-1.4 4 0 8 1.4 4.2 1.4 7.3 3.8l-4.1 5.8q-5.9-4.5-11.8-4.5-2 0-3.6.5-1.6.6-2.4 1.5-.8 1-.8 2.2 0 1.7 1.2 2.7 1.2.9 4.1 1.4l7 1.2q5.6.9 8.4 3.5 2.8 2.6 2.8 7 0 3.6-2 6.3-1.8 2.7-5.4 4.2-3.5 1.4-8.3 1.4zm16.2-.5 15.3-37.4h9l15.1 37.4h-8.3l-3.8-9.8h-15.4l-3.9 9.8zm14.3-16h10.6l-5.3-13.8z" aria-label="BY-SA" font-family="Red Hat Display VF" font-size="53.3" font-weight="700" style="-inkscape-font-specification:&quot;Red Hat Display VF Bold&quot;" transform="translate(-32.7 -55)"/></svg>