<svg xmlns="http://www.w3.org/2000/svg" xml:space="preserve" viewBox="0 0 1057.1 345.4"><path fill="#9146ff" d="M0 0h1057v345H0z"/><path fill="#fff" d="M616 284q-18 0-34-6-16-7-27-18-12-12-19-27-7-16-7-33 0-18 7-33 7-16 18-27 12-12 28-18 15-7 33-7 21 0 39 9 18 8 29 22l-23 22q-9-11-20-16-12-6-25-6-11 0-20 5-9 4-16 11t-11 17q-4 9-4 21 0 11 4 21t11 17q7 7 17 11 9 4 20 4 12 0 21-4 10-5 16-12 7-8 9-18h-49v-29h85v10q0 18-7 33-6 16-17 27t-25 18q-15 6-33 6zm105-3V118h82q16 0 28 7 12 6 19 18 7 11 7 26t-7 26q-7 12-19 18-12 7-28 7h-48v61zm34-89h44q11 0 18-6 6-6 6-16 0-11-6-17-7-6-18-6h-44zm125 89V118h34v133h89v30z" transform="translate(-31 -28)"/><g fill="#fff"><path d="M139 302c-19-3-32-12-38-26-3-6-4-10-4-19l1-12c8-39 43-87 96-129a400 400 0 0 1 103-58 386 386 0 0 0-131 95c-22 26-33 49-32 67 0 9 3 15 9 20 7 7 17 10 32 10 30 0 70-14 110-38 23-13 40-28 44-37v-7c-5-8-34-3-70 13l-7 3a304 304 0 0 1 35-27l15-12c16-13 29-27 34-38l3-8c0-5-2-7-7-8-14-2-45 10-77 31l-7 4 6-10c6-9 15-20 25-29a186 186 0 0 1 104-45c9 0 12 0 17 2 3 2 7 6 8 9 3 7 2 16-4 26-7 15-21 30-41 45l-8 7h5l14 2c3 1 6 4 7 7l1 7c0 6-1 10-5 19a339 339 0 0 1-211 136h-27zM88 239c-11-42-15-89-11-131a252 252 0 0 1 14-61v12c0 14 1 20 3 35 4 25 11 56 21 85l2 6-4 5c-12 19-19 37-22 53l-1 4z"/></g></svg>