<svg xmlns="http://www.w3.org/2000/svg" xml:space="preserve" viewBox="0 0 2400 2800"><path fill="#9146ff" d="M500 0 0 500v1800h600v500l500-500h400l900-900V0Z"/><g fill="#fff"><path d="m658 1689-77-20L973 218l77 21z"/><path d="m541 1573 1452-385 21 77-1452 385z"/><path d="m1418 1837-838-227 21-77 838 227zm343-1262L922 348l21-77 838 227z"/><path d="m440 925-57-57 616-613 56 57z"/><path d="M1951 1345 891 280l54-53 1059 1065zM403 813l72-19 223 839-73 20z"/><path d="m1664 478 77-20 223 840-77 20z"/><path d="m1399 1809-50-50 536-533 49 50z"/><path d="M2068 1294a164 164 0 1 1-317-86 164 164 0 0 1 317 86M610 899a164 164 0 1 1-317-86 164 164 0 0 1 317 86m-81 803a164 164 0 1 1 233-231 164 164 0 0 1-233 231M1600 636a164 164 0 1 1 233-231 164 164 0 0 1-233 231m-184 1306a164 164 0 1 1-84-316 164 164 0 0 1 84 316M1029 482a164 164 0 1 1-84-317 164 164 0 0 1 84 317"/></g></svg>